<svg aria-roledescription="er" role="graphics-document document" viewBox="0 0 1405.885498046875 1515" style="max-width: 1405.89px; background-color: white;" xmlns:xlink="http://www.w3.org/1999/xlink" xmlns="http://www.w3.org/2000/svg" width="100%" id="my-svg"><style>#my-svg{font-family:"trebuchet ms",verdana,arial,sans-serif;font-size:16px;fill:#000000;}#my-svg .error-icon{fill:#552222;}#my-svg .error-text{fill:#552222;stroke:#552222;}#my-svg .edge-thickness-normal{stroke-width:1px;}#my-svg .edge-thickness-thick{stroke-width:3.5px;}#my-svg .edge-pattern-solid{stroke-dasharray:0;}#my-svg .edge-thickness-invisible{stroke-width:0;fill:none;}#my-svg .edge-pattern-dashed{stroke-dasharray:3;}#my-svg .edge-pattern-dotted{stroke-dasharray:2;}#my-svg .marker{fill:#000000;stroke:#000000;}#my-svg .marker.cross{stroke:#000000;}#my-svg svg{font-family:"trebuchet ms",verdana,arial,sans-serif;font-size:16px;}#my-svg p{margin:0;}#my-svg .entityBox{fill:#cde498;stroke:#13540c;}#my-svg .attributeBoxOdd{fill:#ffffff;stroke:#13540c;}#my-svg .attributeBoxEven{fill:#f2f2f2;stroke:#13540c;}#my-svg .relationshipLabelBox{fill:hsl(78.1578947368, 58.4615384615%, 84.5098039216%);opacity:0.7;background-color:hsl(78.1578947368, 58.4615384615%, 84.5098039216%);}#my-svg .relationshipLabelBox rect{opacity:0.5;}#my-svg .relationshipLine{stroke:#000000;}#my-svg .entityTitleText{text-anchor:middle;font-size:18px;fill:#000000;}#my-svg #MD_PARENT_START{fill:#f5f5f5!important;stroke:#000000!important;stroke-width:1;}#my-svg #MD_PARENT_END{fill:#f5f5f5!important;stroke:#000000!important;stroke-width:1;}#my-svg :root{--mermaid-font-family:"trebuchet ms",verdana,arial,sans-serif;}</style><g/><defs><marker orient="auto" markerHeight="240" markerWidth="190" refY="7" refX="0" id="MD_PARENT_START"><path d="M 18,7 L9,13 L1,7 L9,1 Z"/></marker></defs><defs><marker orient="auto" markerHeight="28" markerWidth="20" refY="7" refX="19" id="MD_PARENT_END"><path d="M 18,7 L9,13 L1,7 L9,1 Z"/></marker></defs><defs><marker orient="auto" markerHeight="18" markerWidth="18" refY="9" refX="0" id="ONLY_ONE_START"><path d="M9,0 L9,18 M15,0 L15,18" fill="none" stroke="gray"/></marker></defs><defs><marker orient="auto" markerHeight="18" markerWidth="18" refY="9" refX="18" id="ONLY_ONE_END"><path d="M3,0 L3,18 M9,0 L9,18" fill="none" stroke="gray"/></marker></defs><defs><marker orient="auto" markerHeight="18" markerWidth="30" refY="9" refX="0" id="ZERO_OR_ONE_START"><circle r="6" cy="9" cx="21" fill="white" stroke="gray"/><path d="M9,0 L9,18" fill="none" stroke="gray"/></marker></defs><defs><marker orient="auto" markerHeight="18" markerWidth="30" refY="9" refX="30" id="ZERO_OR_ONE_END"><circle r="6" cy="9" cx="9" fill="white" stroke="gray"/><path d="M21,0 L21,18" fill="none" stroke="gray"/></marker></defs><defs><marker orient="auto" markerHeight="36" markerWidth="45" refY="18" refX="18" id="ONE_OR_MORE_START"><path d="M0,18 Q 18,0 36,18 Q 18,36 0,18 M42,9 L42,27" fill="none" stroke="gray"/></marker></defs><defs><marker orient="auto" markerHeight="36" markerWidth="45" refY="18" refX="27" id="ONE_OR_MORE_END"><path d="M3,9 L3,27 M9,18 Q27,0 45,18 Q27,36 9,18" fill="none" stroke="gray"/></marker></defs><defs><marker orient="auto" markerHeight="36" markerWidth="57" refY="18" refX="18" id="ZERO_OR_MORE_START"><circle r="6" cy="18" cx="48" fill="white" stroke="gray"/><path d="M0,18 Q18,0 36,18 Q18,36 0,18" fill="none" stroke="gray"/></marker></defs><defs><marker orient="auto" markerHeight="36" markerWidth="57" refY="18" refX="39" id="ZERO_OR_MORE_END"><circle r="6" cy="18" cx="9" fill="white" stroke="gray"/><path d="M21,18 Q39,0 57,18 Q39,36 21,18" fill="none" stroke="gray"/></marker></defs><path style="stroke: gray; fill: none;" marker-start="url(#ZERO_OR_ONE_START)" marker-end="url(#ONLY_ONE_END)" d="M402.673,95L397.911,103.333C393.149,111.667,383.625,128.333,383.625,145C383.625,161.667,393.149,178.333,397.911,186.667L402.673,195" class="er relationshipLine"/><path style="stroke: gray; fill: none;" marker-start="url(#ZERO_OR_ONE_START)" marker-end="url(#ONLY_ONE_END)" d="M109.474,370L118.246,361.667C127.018,353.333,144.562,336.667,188.666,316.533C232.771,296.4,303.436,272.799,338.768,260.999L374.101,249.199" class="er relationshipLine"/><path style="stroke: gray; fill: none;" marker-start="url(#ZERO_OR_MORE_START)" marker-end="url(#ZERO_OR_MORE_END)" d="M445.53,195L450.292,186.667C455.053,178.333,464.577,161.667,464.577,145C464.577,128.333,455.053,111.667,450.292,103.333L445.53,95" class="er relationshipLine"/><path style="stroke: gray; fill: none;" marker-start="url(#ZERO_OR_MORE_START)" marker-end="url(#ZERO_OR_MORE_END)" d="M374.101,244.586L322.102,257.155C270.103,269.724,166.104,294.862,114.857,315.764C63.609,336.667,65.113,353.333,65.865,361.667L66.617,370" class="er relationshipLine"/><path style="stroke: gray; fill: none;" marker-start="url(#ZERO_OR_MORE_START)" marker-end="url(#ZERO_OR_MORE_END)" d="M461.817,270L470.199,278.333C478.58,286.667,495.343,303.333,508.486,320C521.629,336.667,531.153,353.333,535.915,361.667L540.677,370" class="er relationshipLine"/><path style="stroke: gray; fill: none;" marker-start="url(#ZERO_OR_MORE_START)" marker-end="url(#ZERO_OR_MORE_END)" d="M408.246,270L404.722,278.333C401.199,286.667,394.152,303.333,390.629,326.25C387.105,349.167,387.105,378.333,387.105,407.5C387.105,436.667,387.105,465.833,414.105,491.56C441.104,517.288,495.103,539.575,522.102,550.719L549.101,561.863" class="er relationshipLine"/><path style="stroke: gray; fill: none;" marker-start="url(#ZERO_OR_MORE_START)" marker-end="url(#ZERO_OR_MORE_END)" d="M374.101,260.89L356.751,270.742C339.401,280.594,304.7,300.297,287.35,324.732C270,349.167,270,378.333,270,407.5C270,436.667,270,465.833,270,495C270,524.167,270,553.333,270,582.5C270,611.667,270,640.833,270,670C270,699.167,270,728.333,270,757.5C270,786.667,270,815.833,270,845C270,874.167,270,903.333,270,932.5C270,961.667,270,990.833,270,1020C270,1049.167,270,1078.333,270,1107.5C270,1136.667,270,1165.833,270,1195C270,1224.167,270,1253.333,270,1282.5C270,1311.667,270,1340.833,362.756,1368.482C455.512,1396.13,641.023,1422.26,733.779,1435.326L826.535,1448.391" class="er relationshipLine"/><path style="stroke: gray; fill: none;" marker-start="url(#ZERO_OR_MORE_START)" marker-end="url(#ZERO_OR_MORE_END)" d="M935.878,1245L940.249,1236.667C944.62,1228.333,953.363,1211.667,957.734,1188.75C962.105,1165.833,962.105,1136.667,962.105,1107.5C962.105,1078.333,962.105,1049.167,962.105,1020C962.105,990.833,962.105,961.667,962.105,932.5C962.105,903.333,962.105,874.167,938.421,848.796C914.737,823.425,867.368,801.849,843.684,791.062L820,780.274" class="er relationshipLine"/><path style="stroke: gray; fill: none;" marker-start="url(#ZERO_OR_MORE_START)" marker-end="url(#ZERO_OR_MORE_END)" d="M966.207,1252.513L982.19,1242.928C998.173,1233.342,1030.139,1214.171,1008.622,1192.654C987.105,1171.136,912.105,1147.273,874.605,1135.341L837.105,1123.409" class="er relationshipLine"/><path style="stroke: gray; fill: none;" marker-start="url(#ZERO_OR_MORE_START)" marker-end="url(#ZERO_OR_MORE_END)" d="M866.207,1290.769L786.356,1303.974C706.506,1317.179,546.806,1343.59,540.194,1369.507C533.582,1395.425,680.058,1420.85,753.296,1433.562L826.535,1446.274" class="er relationshipLine"/><path style="stroke: gray; fill: none;" marker-start="url(#ZERO_OR_ONE_START)" marker-end="url(#ONLY_ONE_END)" d="M955.878,1437.203L991.565,1426.002C1027.252,1414.802,1098.626,1392.401,1134.313,1366.617C1170,1340.833,1170,1311.667,1170,1282.5C1170,1253.333,1170,1224.167,1170,1195C1170,1165.833,1170,1136.667,1170,1107.5C1170,1078.333,1170,1049.167,1170,1020C1170,990.833,1170,961.667,1170,932.5C1170,903.333,1170,874.167,1170,845C1170,815.833,1170,786.667,1170,757.5C1170,728.333,1170,699.167,1170,670C1170,640.833,1170,611.667,1170,582.5C1170,553.333,1170,524.167,1170,495C1170,465.833,1170,436.667,1170,407.5C1170,378.333,1170,349.167,1054.017,320.978C938.034,292.788,706.067,265.577,590.084,251.971L474.101,238.365" class="er relationshipLine"/><path style="stroke: gray; fill: none;" marker-start="url(#ZERO_OR_ONE_START)" marker-end="url(#ONLY_ONE_END)" d="M955.878,1442.561L1008.232,1430.468C1060.586,1418.374,1165.293,1394.187,1167.014,1369.571C1168.736,1344.955,1067.471,1319.911,1016.839,1307.388L966.207,1294.866" class="er relationshipLine"/><path style="stroke: gray; fill: none;" marker-start="url(#ZERO_OR_MORE_START)" marker-end="url(#ZERO_OR_MORE_END)" d="M955.878,1445.681L1024.899,1433.068C1093.919,1420.454,1231.959,1395.227,1300.98,1368.03C1370,1340.833,1370,1311.667,1370,1282.5C1370,1253.333,1370,1224.167,1281.184,1196.251C1192.368,1168.335,1014.737,1141.67,925.921,1128.338L837.105,1115.006" class="er relationshipLine"/><path style="stroke: gray; fill: none;" marker-start="url(#ZERO_OR_MORE_START)" marker-end="url(#ZERO_OR_MORE_END)" d="M755.902,795L752.77,803.333C749.637,811.667,743.371,828.333,745,845C746.629,861.667,756.153,878.333,760.915,886.667L765.677,895" class="er relationshipLine"/><path style="stroke: gray; fill: none;" marker-start="url(#ZERO_OR_ONE_START)" marker-end="url(#ONLY_ONE_END)" d="M720,785.208L702.018,795.174C684.035,805.139,648.07,825.069,630.088,849.618C612.105,874.167,612.105,903.333,612.105,932.5C612.105,961.667,612.105,990.833,612.105,1020C612.105,1049.167,612.105,1078.333,612.105,1107.5C612.105,1136.667,612.105,1165.833,654.456,1192.602C696.806,1219.371,781.506,1243.742,823.856,1255.928L866.207,1268.113" class="er relationshipLine"/><path style="stroke: gray; fill: none;" marker-start="url(#ZERO_OR_MORE_START)" marker-end="url(#ZERO_OR_MORE_END)" d="M820,739.429L852.018,727.858C884.035,716.286,948.07,693.143,919.587,668.754C891.104,644.364,770.103,618.729,709.602,605.911L649.101,593.093" class="er relationshipLine"/><path style="stroke: gray; fill: none;" marker-start="url(#ZERO_OR_ONE_START)" marker-end="url(#ONLY_ONE_END)" d="M487.635,720L492.397,711.667C497.159,703.333,506.683,686.667,519.339,670C531.996,653.333,547.785,636.667,555.68,628.333L563.575,620" class="er relationshipLine"/><path style="stroke: gray; fill: none;" marker-start="url(#ZERO_OR_ONE_START)" marker-end="url(#ONLY_ONE_END)" d="M649.101,570.448L701.268,557.873C753.436,545.299,857.771,520.149,909.938,492.991C962.105,465.833,962.105,436.667,962.105,407.5C962.105,378.333,962.105,349.167,880.771,321.355C799.437,293.544,636.769,267.088,555.435,253.86L474.101,240.632" class="er relationshipLine"/><path style="stroke: gray; fill: none;" marker-start="url(#ZERO_OR_ONE_START)" marker-end="url(#ONLY_ONE_END)" d="M641.958,620L651.482,628.333C661.006,636.667,680.053,653.333,696.33,670C712.606,686.667,726.11,703.333,732.862,711.667L739.615,720" class="er relationshipLine"/><path style="stroke: gray; fill: none;" marker-start="url(#ZERO_OR_MORE_START)" marker-end="url(#ZERO_OR_MORE_END)" d="M649.101,573.051L717.935,560.042C786.769,547.034,924.437,521.017,918.271,494.883C912.105,468.75,762.105,442.5,687.105,429.375L612.105,416.25" class="er relationshipLine"/><path style="stroke: gray; fill: none;" marker-start="url(#ZERO_OR_MORE_START)" marker-end="url(#ZERO_OR_MORE_END)" d="M549.101,606.421L526.952,617.017C504.803,627.614,460.505,648.807,443.118,667.737C425.73,686.667,435.254,703.333,440.016,711.667L444.778,720" class="er relationshipLine"/><path style="stroke: gray; fill: none;" marker-start="url(#ZERO_OR_MORE_START)" marker-end="url(#ZERO_OR_MORE_END)" d="M808.534,1070L813.296,1061.667C818.058,1053.333,827.582,1036.667,827.582,1020C827.582,1003.333,818.058,986.667,813.296,978.333L808.534,970" class="er relationshipLine"/><path style="stroke: gray; fill: none;" marker-start="url(#ZERO_OR_MORE_START)" marker-end="url(#ZERO_OR_MORE_END)" d="M787.105,1145L787.105,1153.333C787.105,1161.667,787.105,1178.333,800.289,1195.602C813.472,1212.871,839.84,1230.741,853.023,1239.677L866.207,1248.612" class="er relationshipLine"/><path style="stroke: gray; fill: none;" marker-start="url(#ZERO_OR_MORE_START)" marker-end="url(#ZERO_OR_MORE_END)" d="M737.105,1122.083L695.439,1134.236C653.772,1146.389,570.439,1170.694,528.772,1197.431C487.105,1224.167,487.105,1253.333,487.105,1282.5C487.105,1311.667,487.105,1340.833,543.677,1367.666C600.249,1394.499,713.392,1418.998,769.963,1431.247L826.535,1443.497" class="er relationshipLine"/><path style="stroke: gray; fill: none;" marker-start="url(#ZERO_OR_MORE_START)" marker-end="url(#ZERO_OR_MORE_END)" d="M808.534,895L813.296,886.667C818.058,878.333,827.582,861.667,825.953,845C824.323,828.333,811.541,811.667,805.15,803.333L798.759,795" class="er relationshipLine"/><path style="stroke: gray; fill: none;" marker-start="url(#ZERO_OR_ONE_START)" marker-end="url(#ONLY_ONE_END)" d="M765.677,970L760.915,978.333C756.153,986.667,746.629,1003.333,746.629,1020C746.629,1036.667,756.153,1053.333,760.915,1061.667L765.677,1070" class="er relationshipLine"/><path style="stroke: gray; fill: none;" marker-start="url(#ZERO_OR_ONE_START)" marker-end="url(#ONLY_ONE_END)" d="M612.105,382.5L632.939,372.083C653.772,361.667,695.439,340.833,672.438,318.163C649.437,295.492,561.769,270.985,517.935,258.731L474.101,246.477" class="er relationshipLine"/><path style="stroke: gray; fill: none;" marker-start="url(#ZERO_OR_MORE_START)" marker-end="url(#ZERO_OR_MORE_END)" d="M562.105,445L562.105,453.333C562.105,461.667,562.105,478.333,565.629,495C569.152,511.667,576.199,528.333,579.722,536.667L583.246,545" class="er relationshipLine"/><g transform="translate(374.10107421875,20 )" id="entity-Account-3e57c4b6-cd9d-514f-a2f6-ac5478bb332e"><rect height="75" width="100" y="0" x="0" class="er entityBox"/><text style="dominant-baseline: middle; text-anchor: middle; font-size: 12px;" transform="translate(50,37.5)" y="0" x="0" id="text-entity-Account-3e57c4b6-cd9d-514f-a2f6-ac5478bb332e" class="er entityLabel">Account</text></g><g transform="translate(20,370 )" id="entity-Session-087c087e-5b46-5a6f-a710-5a009604ebd7"><rect height="75" width="100" y="0" x="0" class="er entityBox"/><text style="dominant-baseline: middle; text-anchor: middle; font-size: 12px;" transform="translate(50,37.5)" y="0" x="0" id="text-entity-Session-087c087e-5b46-5a6f-a710-5a009604ebd7" class="er entityLabel">Session</text></g><g transform="translate(574.10107421875,20 )" id="entity-VerificationToken-962d7f37-815d-52d1-ae4d-eb767410e383"><rect height="75" width="131.578125" y="0" x="0" class="er entityBox"/><text style="dominant-baseline: middle; text-anchor: middle; font-size: 12px;" transform="translate(65.7890625,37.5)" y="0" x="0" id="text-entity-VerificationToken-962d7f37-815d-52d1-ae4d-eb767410e383" class="er entityLabel">VerificationToken</text></g><g transform="translate(374.10107421875,195 )" id="entity-User-818c511a-4a32-5484-ba70-875d765a9175"><rect height="75" width="100" y="0" x="0" class="er entityBox"/><text style="dominant-baseline: middle; text-anchor: middle; font-size: 12px;" transform="translate(50,37.5)" y="0" x="0" id="text-entity-User-818c511a-4a32-5484-ba70-875d765a9175" class="er entityLabel">User</text></g><g transform="translate(866.20654296875,1245 )" id="entity-Collection-b1937adc-4c91-509a-b683-bddc8bc6261c"><rect height="75" width="100" y="0" x="0" class="er entityBox"/><text style="dominant-baseline: middle; text-anchor: middle; font-size: 12px;" transform="translate(50,37.5)" y="0" x="0" id="text-entity-Collection-b1937adc-4c91-509a-b683-bddc8bc6261c" class="er entityLabel">Collection</text></g><g transform="translate(826.53466796875,1420 )" id="entity-UserToCollection-b377fafb-b04c-56a8-abe1-f3742c0ffb71"><rect height="75" width="129.34375" y="0" x="0" class="er entityBox"/><text style="dominant-baseline: middle; text-anchor: middle; font-size: 12px;" transform="translate(64.671875,37.5)" y="0" x="0" id="text-entity-UserToCollection-b377fafb-b04c-56a8-abe1-f3742c0ffb71" class="er entityLabel">UserToCollection</text></g><g transform="translate(720,720 )" id="entity-Item-8a1f935b-4333-55f4-bdb2-98b6af61c805"><rect height="75" width="100" y="0" x="0" class="er entityBox"/><text style="dominant-baseline: middle; text-anchor: middle; font-size: 12px;" transform="translate(50,37.5)" y="0" x="0" id="text-entity-Item-8a1f935b-4333-55f4-bdb2-98b6af61c805" class="er entityLabel">Item</text></g><g transform="translate(408.00439453125,720 )" id="entity-ItemComment-98ea0e90-9bf1-54e0-98ef-de738de57583"><rect height="75" width="116.404296875" y="0" x="0" class="er entityBox"/><text style="dominant-baseline: middle; text-anchor: middle; font-size: 12px;" transform="translate(58.2021484375,37.5)" y="0" x="0" id="text-entity-ItemComment-98ea0e90-9bf1-54e0-98ef-de738de57583" class="er entityLabel">ItemComment</text></g><g transform="translate(549.10107421875,545 )" id="entity-UserToItem-a60caf97-3469-5edd-80ec-de7c0b13ad39"><rect height="75" width="100" y="0" x="0" class="er entityBox"/><text style="dominant-baseline: middle; text-anchor: middle; font-size: 12px;" transform="translate(50,37.5)" y="0" x="0" id="text-entity-UserToItem-a60caf97-3469-5edd-80ec-de7c0b13ad39" class="er entityLabel">UserToItem</text></g><g transform="translate(737.10546875,1070 )" id="entity-FieldGroup-e03c3cf9-aa18-5b1a-8419-279de4518678"><rect height="75" width="100" y="0" x="0" class="er entityBox"/><text style="dominant-baseline: middle; text-anchor: middle; font-size: 12px;" transform="translate(50,37.5)" y="0" x="0" id="text-entity-FieldGroup-e03c3cf9-aa18-5b1a-8419-279de4518678" class="er entityLabel">FieldGroup</text></g><g transform="translate(737.10546875,895 )" id="entity-Field-a55f9bc0-cd09-56e2-ab75-6182185bd4e0"><rect height="75" width="100" y="0" x="0" class="er entityBox"/><text style="dominant-baseline: middle; text-anchor: middle; font-size: 12px;" transform="translate(50,37.5)" y="0" x="0" id="text-entity-Field-a55f9bc0-cd09-56e2-ab75-6182185bd4e0" class="er entityLabel">Field</text></g><g transform="translate(512.10546875,370 )" id="entity-Tag-79f01a75-328e-5fee-acfd-3ecc1e7e19fa"><rect height="75" width="100" y="0" x="0" class="er entityBox"/><text style="dominant-baseline: middle; text-anchor: middle; font-size: 12px;" transform="translate(50,37.5)" y="0" x="0" id="text-entity-Tag-79f01a75-328e-5fee-acfd-3ecc1e7e19fa" class="er entityLabel">Tag</text></g><rect height="14" width="26.240234375" y="138.00001525878906" x="370.5048828125" class="er relationshipLabelBox"/><text style="text-anchor: middle; dominant-baseline: middle; font-size: 12px;" y="145.00001525878906" x="383.625" id="rel1" class="er relationshipLabel">user</text><rect height="14" width="26.240234375" y="290.2818603515625" x="222.33213806152344" class="er relationshipLabelBox"/><text style="text-anchor: middle; dominant-baseline: middle; font-size: 12px;" y="297.2818603515625" x="235.45225524902344" id="rel2" class="er relationshipLabel">user</text><rect height="14" width="54.0625" y="138" x="437.5457458496094" class="er relationshipLabelBox"/><text style="text-anchor: middle; dominant-baseline: middle; font-size: 12px;" y="145" x="464.5769958496094" id="rel3" class="er relationshipLabel">accounts</text><rect height="14" width="50.671875" y="280.0201721191406" x="179.3356475830078" class="er relationshipLabelBox"/><text style="text-anchor: middle; dominant-baseline: middle; font-size: 12px;" y="287.0201721191406" x="204.6715850830078" id="rel4" class="er relationshipLabel">sessions</text><rect height="14" width="25.9375" y="309.52740478515625" x="492.7276306152344" class="er relationshipLabelBox"/><text style="text-anchor: middle; dominant-baseline: middle; font-size: 12px;" y="316.52740478515625" x="505.6963806152344" id="rel5" class="er relationshipLabel">tags</text><rect height="14" width="72.375" y="451.8154296875" x="356.597412109375" class="er relationshipLabelBox"/><text style="text-anchor: middle; dominant-baseline: middle; font-size: 12px;" y="458.8154296875" x="392.784912109375" id="rel6" class="er relationshipLabel">userToItems</text><rect height="14" width="104.421875" y="1045.631103515625" x="217.7890625" class="er relationshipLabelBox"/><text style="text-anchor: middle; dominant-baseline: middle; font-size: 12px;" y="1052.631103515625" x="270" id="rel7" class="er relationshipLabel">userToCollections</text><rect height="14" width="33.375" y="970.509033203125" x="945.41748046875" class="er relationshipLabelBox"/><text style="text-anchor: middle; dominant-baseline: middle; font-size: 12px;" y="977.509033203125" x="962.10498046875" id="rel8" class="er relationshipLabel">items</text><rect height="14" width="68.6875" y="1160.8212890625" x="931.4105834960938" class="er relationshipLabelBox"/><text style="text-anchor: middle; dominant-baseline: middle; font-size: 12px;" y="1167.8212890625" x="965.7543334960938" id="rel9" class="er relationshipLabel">fieldGroups</text><rect height="14" width="104.421875" y="1350.5458984375" x="501.08447265625" class="er relationshipLabelBox"/><text style="text-anchor: middle; dominant-baseline: middle; font-size: 12px;" y="1357.5458984375" x="553.29541015625" id="rel10" class="er relationshipLabel">userToCollections</text><rect height="14" width="26.240234375" y="609.8758544921875" x="1156.8798828125" class="er relationshipLabelBox"/><text style="text-anchor: middle; dominant-baseline: middle; font-size: 12px;" y="616.8758544921875" x="1170" id="rel11" class="er relationshipLabel">user</text><rect height="14" width="57.578125" y="1366.5804443359375" x="1137.055908203125" class="er relationshipLabelBox"/><text style="text-anchor: middle; dominant-baseline: middle; font-size: 12px;" y="1373.5804443359375" x="1165.844970703125" id="rel12" class="er relationshipLabel">collection</text><rect height="14" width="68.6875" y="1223.931396484375" x="1317.197998046875" class="er relationshipLabelBox"/><text style="text-anchor: middle; dominant-baseline: middle; font-size: 12px;" y="1230.931396484375" x="1351.541748046875" id="rel13" class="er relationshipLabel">fieldGroups</text><rect height="14" width="32.15625" y="839.4225463867188" x="729.080078125" class="er relationshipLabelBox"/><text style="text-anchor: middle; dominant-baseline: middle; font-size: 12px;" y="846.4225463867188" x="745.158203125" id="rel14" class="er relationshipLabel">fields</text><rect height="14" width="57.578125" y="1077.1895751953125" x="583.31591796875" class="er relationshipLabelBox"/><text style="text-anchor: middle; dominant-baseline: middle; font-size: 12px;" y="1084.1895751953125" x="612.10498046875" id="rel15" class="er relationshipLabel">collection</text><rect height="14" width="72.375" y="633.9655151367188" x="818.5333862304688" class="er relationshipLabelBox"/><text style="text-anchor: middle; dominant-baseline: middle; font-size: 12px;" y="640.9655151367188" x="854.7208862304688" id="rel16" class="er relationshipLabel">userToItems</text><rect height="14" width="66.125" y="660.0130004882812" x="488.5777587890625" class="er relationshipLabelBox"/><text style="text-anchor: middle; dominant-baseline: middle; font-size: 12px;" y="667.0130004882812" x="521.6402587890625" id="rel17" class="er relationshipLabel">userToItem</text><rect height="14" width="26.240234375" y="333.30682373046875" x="911.104736328125" class="er relationshipLabelBox"/><text style="text-anchor: middle; dominant-baseline: middle; font-size: 12px;" y="340.30682373046875" x="924.224853515625" id="rel18" class="er relationshipLabel">user</text><rect height="14" width="27.125" y="660.2490844726562" x="680.05517578125" class="er relationshipLabelBox"/><text style="text-anchor: middle; dominant-baseline: middle; font-size: 12px;" y="667.2490844726562" x="693.61767578125" id="rel19" class="er relationshipLabel">item</text><rect height="14" width="25.9375" y="476.32879638671875" x="893.8447265625" class="er relationshipLabelBox"/><text style="text-anchor: middle; dominant-baseline: middle; font-size: 12px;" y="483.32879638671875" x="906.8134765625" id="rel20" class="er relationshipLabel">tags</text><rect height="14" width="92.15625" y="640.7598876953125" x="422.7967529296875" class="er relationshipLabelBox"/><text style="text-anchor: middle; dominant-baseline: middle; font-size: 12px;" y="647.7598876953125" x="468.8748779296875" id="rel21" class="er relationshipLabel">itemComments</text><rect height="14" width="32.15625" y="1013" x="811.5038452148438" class="er relationshipLabelBox"/><text style="text-anchor: middle; dominant-baseline: middle; font-size: 12px;" y="1020" x="827.5819702148438" id="rel22" class="er relationshipLabel">fields</text><rect height="14" width="63.828125" y="1200.20166015625" x="778.9356689453125" class="er relationshipLabelBox"/><text style="text-anchor: middle; dominant-baseline: middle; font-size: 12px;" y="1207.20166015625" x="810.8497314453125" id="rel23" class="er relationshipLabel">collections</text><rect height="14" width="104.421875" y="1315.455078125" x="440.3725280761719" class="er relationshipLabelBox"/><text style="text-anchor: middle; dominant-baseline: middle; font-size: 12px;" y="1322.455078125" x="492.5834655761719" id="rel24" class="er relationshipLabel">userToCollections</text><rect height="14" width="33.375" y="836.10986328125" x="809.0335083007812" class="er relationshipLabelBox"/><text style="text-anchor: middle; dominant-baseline: middle; font-size: 12px;" y="843.10986328125" x="825.7210083007812" id="rel25" class="er relationshipLabel">items</text><rect height="14" width="62.4375" y="1013" x="715.4102783203125" class="er relationshipLabelBox"/><text style="text-anchor: middle; dominant-baseline: middle; font-size: 12px;" y="1020" x="746.6290283203125" id="rel26" class="er relationshipLabel">fieldGroup</text><rect height="14" width="26.240234375" y="285.44842529296875" x="611.4262084960938" class="er relationshipLabelBox"/><text style="text-anchor: middle; dominant-baseline: middle; font-size: 12px;" y="292.44842529296875" x="624.5463256835938" id="rel27" class="er relationshipLabel">user</text><rect height="14" width="72.375" y="489.4041442871094" x="529.7469482421875" class="er relationshipLabelBox"/><text style="text-anchor: middle; dominant-baseline: middle; font-size: 12px;" y="496.4041442871094" x="565.9344482421875" id="rel28" class="er relationshipLabel">userToItems</text></svg>