<svg aria-roledescription="er" role="graphics-document document" viewBox="0 0 669.40869140625 1340" style="max-width: 669.409px; background-color: white;" xmlns:xlink="http://www.w3.org/1999/xlink" xmlns="http://www.w3.org/2000/svg" width="100%" id="my-svg"><style>#my-svg{font-family:"trebuchet ms",verdana,arial,sans-serif;font-size:16px;fill:#000000;}#my-svg .error-icon{fill:#552222;}#my-svg .error-text{fill:#552222;stroke:#552222;}#my-svg .edge-thickness-normal{stroke-width:1px;}#my-svg .edge-thickness-thick{stroke-width:3.5px;}#my-svg .edge-pattern-solid{stroke-dasharray:0;}#my-svg .edge-thickness-invisible{stroke-width:0;fill:none;}#my-svg .edge-pattern-dashed{stroke-dasharray:3;}#my-svg .edge-pattern-dotted{stroke-dasharray:2;}#my-svg .marker{fill:#000000;stroke:#000000;}#my-svg .marker.cross{stroke:#000000;}#my-svg svg{font-family:"trebuchet ms",verdana,arial,sans-serif;font-size:16px;}#my-svg p{margin:0;}#my-svg .entityBox{fill:#cde498;stroke:#13540c;}#my-svg .attributeBoxOdd{fill:#ffffff;stroke:#13540c;}#my-svg .attributeBoxEven{fill:#f2f2f2;stroke:#13540c;}#my-svg .relationshipLabelBox{fill:hsl(78.1578947368, 58.4615384615%, 84.5098039216%);opacity:0.7;background-color:hsl(78.1578947368, 58.4615384615%, 84.5098039216%);}#my-svg .relationshipLabelBox rect{opacity:0.5;}#my-svg .relationshipLine{stroke:#000000;}#my-svg .entityTitleText{text-anchor:middle;font-size:18px;fill:#000000;}#my-svg #MD_PARENT_START{fill:#f5f5f5!important;stroke:#000000!important;stroke-width:1;}#my-svg #MD_PARENT_END{fill:#f5f5f5!important;stroke:#000000!important;stroke-width:1;}#my-svg :root{--mermaid-font-family:"trebuchet ms",verdana,arial,sans-serif;}</style><g/><defs><marker orient="auto" markerHeight="240" markerWidth="190" refY="7" refX="0" id="MD_PARENT_START"><path d="M 18,7 L9,13 L1,7 L9,1 Z"/></marker></defs><defs><marker orient="auto" markerHeight="28" markerWidth="20" refY="7" refX="19" id="MD_PARENT_END"><path d="M 18,7 L9,13 L1,7 L9,1 Z"/></marker></defs><defs><marker orient="auto" markerHeight="18" markerWidth="18" refY="9" refX="0" id="ONLY_ONE_START"><path d="M9,0 L9,18 M15,0 L15,18" fill="none" stroke="gray"/></marker></defs><defs><marker orient="auto" markerHeight="18" markerWidth="18" refY="9" refX="18" id="ONLY_ONE_END"><path d="M3,0 L3,18 M9,0 L9,18" fill="none" stroke="gray"/></marker></defs><defs><marker orient="auto" markerHeight="18" markerWidth="30" refY="9" refX="0" id="ZERO_OR_ONE_START"><circle r="6" cy="9" cx="21" fill="white" stroke="gray"/><path d="M9,0 L9,18" fill="none" stroke="gray"/></marker></defs><defs><marker orient="auto" markerHeight="18" markerWidth="30" refY="9" refX="30" id="ZERO_OR_ONE_END"><circle r="6" cy="9" cx="9" fill="white" stroke="gray"/><path d="M21,0 L21,18" fill="none" stroke="gray"/></marker></defs><defs><marker orient="auto" markerHeight="36" markerWidth="45" refY="18" refX="18" id="ONE_OR_MORE_START"><path d="M0,18 Q 18,0 36,18 Q 18,36 0,18 M42,9 L42,27" fill="none" stroke="gray"/></marker></defs><defs><marker orient="auto" markerHeight="36" markerWidth="45" refY="18" refX="27" id="ONE_OR_MORE_END"><path d="M3,9 L3,27 M9,18 Q27,0 45,18 Q27,36 9,18" fill="none" stroke="gray"/></marker></defs><defs><marker orient="auto" markerHeight="36" markerWidth="57" refY="18" refX="18" id="ZERO_OR_MORE_START"><circle r="6" cy="18" cx="48" fill="white" stroke="gray"/><path d="M0,18 Q18,0 36,18 Q18,36 0,18" fill="none" stroke="gray"/></marker></defs><defs><marker orient="auto" markerHeight="36" markerWidth="57" refY="18" refX="39" id="ZERO_OR_MORE_END"><circle r="6" cy="18" cx="9" fill="white" stroke="gray"/><path d="M21,18 Q39,0 57,18 Q39,36 21,18" fill="none" stroke="gray"/></marker></defs><path style="stroke: gray; fill: none;" marker-start="url(#ZERO_OR_ONE_START)" marker-end="url(#ONLY_ONE_END)" d="M298.571,95L293.81,103.333C289.048,111.667,279.524,128.333,279.524,145C279.524,161.667,289.048,178.333,293.81,186.667L298.571,195" class="er relationshipLine"/><path style="stroke: gray; fill: none;" marker-start="url(#ZERO_OR_ONE_START)" marker-end="url(#ONLY_ONE_END)" d="M91.429,370L96.19,361.667C100.952,353.333,110.476,336.667,140.238,317.396C170,298.125,220,276.25,245,265.313L270,254.375" class="er relationshipLine"/><path style="stroke: gray; fill: none;" marker-start="url(#ZERO_OR_MORE_START)" marker-end="url(#ZERO_OR_MORE_END)" d="M341.429,195L346.19,186.667C350.952,178.333,360.476,161.667,360.476,145C360.476,128.333,350.952,111.667,346.19,103.333L341.429,95" class="er relationshipLine"/><path style="stroke: gray; fill: none;" marker-start="url(#ZERO_OR_MORE_START)" marker-end="url(#ZERO_OR_MORE_END)" d="M270,247.083L228.333,259.236C186.667,271.389,103.333,295.694,66.429,316.181C29.524,336.667,39.048,353.333,43.81,361.667L48.571,370" class="er relationshipLine"/><path style="stroke: gray; fill: none;" marker-start="url(#ZERO_OR_MORE_START)" marker-end="url(#ZERO_OR_MORE_END)" d="M341.429,270L346.19,278.333C350.952,286.667,360.476,303.333,370,320C379.524,336.667,389.048,353.333,393.81,361.667L398.571,370" class="er relationshipLine"/><path style="stroke: gray; fill: none;" marker-start="url(#ZERO_OR_MORE_START)" marker-end="url(#ZERO_OR_MORE_END)" d="M287.857,270L280.714,278.333C273.571,286.667,259.286,303.333,252.143,326.25C245,349.167,245,378.333,245,407.5C245,436.667,245,465.833,277.018,491.988C309.035,518.143,373.07,541.286,405.088,552.858L437.105,564.429" class="er relationshipLine"/><path style="stroke: gray; fill: none;" marker-start="url(#ZERO_OR_MORE_START)" marker-end="url(#ZERO_OR_MORE_END)" d="M495.288,1245L503.574,1236.667C511.859,1228.333,528.429,1211.667,536.715,1188.75C545,1165.833,545,1136.667,545,1107.5C545,1078.333,545,1049.167,545,1020C545,990.833,545,961.667,545,932.5C545,903.333,545,874.167,526.334,849.501C507.668,824.836,470.336,804.671,451.67,794.589L433.004,784.507" class="er relationshipLine"/><path style="stroke: gray; fill: none;" marker-start="url(#ZERO_OR_MORE_START)" marker-end="url(#ZERO_OR_MORE_END)" d="M508.004,1259.104L530.837,1248.42C553.67,1237.736,599.335,1216.368,584.667,1193.752C570,1171.136,495,1147.273,457.5,1135.341L420,1123.409" class="er relationshipLine"/><path style="stroke: gray; fill: none;" marker-start="url(#ZERO_OR_MORE_START)" marker-end="url(#ZERO_OR_MORE_END)" d="M356.003,795L350.002,803.333C344.002,811.667,332.001,828.333,330.762,845C329.524,861.667,339.048,878.333,343.81,886.667L348.571,895" class="er relationshipLine"/><path style="stroke: gray; fill: none;" marker-start="url(#ZERO_OR_ONE_START)" marker-end="url(#ONLY_ONE_END)" d="M333.004,780.771L310.004,791.476C287.003,802.18,241.001,823.59,218.001,848.878C195,874.167,195,903.333,195,932.5C195,961.667,195,990.833,195,1020C195,1049.167,195,1078.333,195,1107.5C195,1136.667,195,1165.833,230.501,1192.228C266.001,1218.622,337.003,1242.244,372.504,1254.054L408.004,1265.865" class="er relationshipLine"/><path style="stroke: gray; fill: none;" marker-start="url(#ZERO_OR_MORE_START)" marker-end="url(#ZERO_OR_MORE_END)" d="M404.433,720L409.195,711.667C413.957,703.333,423.481,686.667,433.395,670C443.309,653.333,453.614,636.667,458.767,628.333L463.919,620" class="er relationshipLine"/><path style="stroke: gray; fill: none;" marker-start="url(#ZERO_OR_ONE_START)" marker-end="url(#ONLY_ONE_END)" d="M612.635,720L617.397,711.667C622.159,703.333,631.683,686.667,619.094,668.482C606.506,650.297,571.806,630.594,554.456,620.742L537.105,610.89" class="er relationshipLine"/><path style="stroke: gray; fill: none;" marker-start="url(#ZERO_OR_ONE_START)" marker-end="url(#ONLY_ONE_END)" d="M533.346,545L543.622,536.667C553.897,528.333,574.449,511.667,584.724,488.75C595,465.833,595,436.667,595,407.5C595,378.333,595,349.167,557.5,322.652C520,296.136,445,272.273,407.5,260.341L370,248.409" class="er relationshipLine"/><path style="stroke: gray; fill: none;" marker-start="url(#ZERO_OR_ONE_START)" marker-end="url(#ONLY_ONE_END)" d="M437.105,610.89L419.755,620.742C402.405,630.594,367.705,650.297,355.116,668.482C342.528,686.667,352.052,703.333,356.814,711.667L361.576,720" class="er relationshipLine"/><path style="stroke: gray; fill: none;" marker-start="url(#ZERO_OR_MORE_START)" marker-end="url(#ZERO_OR_MORE_END)" d="M537.105,561.456L563.421,550.38C589.737,539.304,642.368,517.152,631.184,494.144C620,471.136,545,447.273,507.5,435.341L470,423.409" class="er relationshipLine"/><path style="stroke: gray; fill: none;" marker-start="url(#ZERO_OR_MORE_START)" marker-end="url(#ZERO_OR_MORE_END)" d="M508.534,620L513.296,628.333C518.058,636.667,527.582,653.333,537.496,670C547.41,686.667,557.715,703.333,562.868,711.667L568.02,720" class="er relationshipLine"/><path style="stroke: gray; fill: none;" marker-start="url(#ZERO_OR_MORE_START)" marker-end="url(#ZERO_OR_MORE_END)" d="M391.429,1070L396.19,1061.667C400.952,1053.333,410.476,1036.667,410.476,1020C410.476,1003.333,400.952,986.667,396.19,978.333L391.429,970" class="er relationshipLine"/><path style="stroke: gray; fill: none;" marker-start="url(#ZERO_OR_MORE_START)" marker-end="url(#ZERO_OR_MORE_END)" d="M370,1145L370,1153.333C370,1161.667,370,1178.333,378.381,1195C386.763,1211.667,403.525,1228.333,411.907,1236.667L420.288,1245" class="er relationshipLine"/><path style="stroke: gray; fill: none;" marker-start="url(#ZERO_OR_MORE_START)" marker-end="url(#ZERO_OR_MORE_END)" d="M391.429,895L396.19,886.667C400.952,878.333,410.476,861.667,411.715,845C412.953,828.333,405.906,811.667,402.383,803.333L398.86,795" class="er relationshipLine"/><path style="stroke: gray; fill: none;" marker-start="url(#ZERO_OR_ONE_START)" marker-end="url(#ONLY_ONE_END)" d="M348.571,970L343.81,978.333C339.048,986.667,329.524,1003.333,329.524,1020C329.524,1036.667,339.048,1053.333,343.81,1061.667L348.571,1070" class="er relationshipLine"/><path style="stroke: gray; fill: none;" marker-start="url(#ZERO_OR_ONE_START)" marker-end="url(#ONLY_ONE_END)" d="M441.429,370L446.19,361.667C450.952,353.333,460.476,336.667,448.571,318.611C436.667,300.556,403.333,281.111,386.667,271.389L370,261.667" class="er relationshipLine"/><path style="stroke: gray; fill: none;" marker-start="url(#ZERO_OR_MORE_START)" marker-end="url(#ZERO_OR_MORE_END)" d="M420,445L420,453.333C420,461.667,420,478.333,426.391,495C432.782,511.667,445.564,528.333,451.955,536.667L458.346,545" class="er relationshipLine"/><g transform="translate(270,20 )" id="entity-Account-3e57c4b6-cd9d-514f-a2f6-ac5478bb332e"><rect height="75" width="100" y="0" x="0" class="er entityBox"/><text style="dominant-baseline: middle; text-anchor: middle; font-size: 12px;" transform="translate(50,37.5)" y="0" x="0" id="text-entity-Account-3e57c4b6-cd9d-514f-a2f6-ac5478bb332e" class="er entityLabel">Account</text></g><g transform="translate(20,370 )" id="entity-Session-087c087e-5b46-5a6f-a710-5a009604ebd7"><rect height="75" width="100" y="0" x="0" class="er entityBox"/><text style="dominant-baseline: middle; text-anchor: middle; font-size: 12px;" transform="translate(50,37.5)" y="0" x="0" id="text-entity-Session-087c087e-5b46-5a6f-a710-5a009604ebd7" class="er entityLabel">Session</text></g><g transform="translate(470,20 )" id="entity-VerificationToken-962d7f37-815d-52d1-ae4d-eb767410e383"><rect height="75" width="131.578125" y="0" x="0" class="er entityBox"/><text style="dominant-baseline: middle; text-anchor: middle; font-size: 12px;" transform="translate(65.7890625,37.5)" y="0" x="0" id="text-entity-VerificationToken-962d7f37-815d-52d1-ae4d-eb767410e383" class="er entityLabel">VerificationToken</text></g><g transform="translate(270,195 )" id="entity-User-818c511a-4a32-5484-ba70-875d765a9175"><rect height="75" width="100" y="0" x="0" class="er entityBox"/><text style="dominant-baseline: middle; text-anchor: middle; font-size: 12px;" transform="translate(50,37.5)" y="0" x="0" id="text-entity-User-818c511a-4a32-5484-ba70-875d765a9175" class="er entityLabel">User</text></g><g transform="translate(408.00439453125,1245 )" id="entity-Collection-b1937adc-4c91-509a-b683-bddc8bc6261c"><rect height="75" width="100" y="0" x="0" class="er entityBox"/><text style="dominant-baseline: middle; text-anchor: middle; font-size: 12px;" transform="translate(50,37.5)" y="0" x="0" id="text-entity-Collection-b1937adc-4c91-509a-b683-bddc8bc6261c" class="er entityLabel">Collection</text></g><g transform="translate(333.00439453125,720 )" id="entity-Item-8a1f935b-4333-55f4-bdb2-98b6af61c805"><rect height="75" width="100" y="0" x="0" class="er entityBox"/><text style="dominant-baseline: middle; text-anchor: middle; font-size: 12px;" transform="translate(50,37.5)" y="0" x="0" id="text-entity-Item-8a1f935b-4333-55f4-bdb2-98b6af61c805" class="er entityLabel">Item</text></g><g transform="translate(533.00439453125,720 )" id="entity-ItemComment-98ea0e90-9bf1-54e0-98ef-de738de57583"><rect height="75" width="116.404296875" y="0" x="0" class="er entityBox"/><text style="dominant-baseline: middle; text-anchor: middle; font-size: 12px;" transform="translate(58.2021484375,37.5)" y="0" x="0" id="text-entity-ItemComment-98ea0e90-9bf1-54e0-98ef-de738de57583" class="er entityLabel">ItemComment</text></g><g transform="translate(437.10546875,545 )" id="entity-UserToItem-a60caf97-3469-5edd-80ec-de7c0b13ad39"><rect height="75" width="100" y="0" x="0" class="er entityBox"/><text style="dominant-baseline: middle; text-anchor: middle; font-size: 12px;" transform="translate(50,37.5)" y="0" x="0" id="text-entity-UserToItem-a60caf97-3469-5edd-80ec-de7c0b13ad39" class="er entityLabel">UserToItem</text></g><g transform="translate(320,1070 )" id="entity-FieldGroup-e03c3cf9-aa18-5b1a-8419-279de4518678"><rect height="75" width="100" y="0" x="0" class="er entityBox"/><text style="dominant-baseline: middle; text-anchor: middle; font-size: 12px;" transform="translate(50,37.5)" y="0" x="0" id="text-entity-FieldGroup-e03c3cf9-aa18-5b1a-8419-279de4518678" class="er entityLabel">FieldGroup</text></g><g transform="translate(320,895 )" id="entity-Field-a55f9bc0-cd09-56e2-ab75-6182185bd4e0"><rect height="75" width="100" y="0" x="0" class="er entityBox"/><text style="dominant-baseline: middle; text-anchor: middle; font-size: 12px;" transform="translate(50,37.5)" y="0" x="0" id="text-entity-Field-a55f9bc0-cd09-56e2-ab75-6182185bd4e0" class="er entityLabel">Field</text></g><g transform="translate(370,370 )" id="entity-Tag-79f01a75-328e-5fee-acfd-3ecc1e7e19fa"><rect height="75" width="100" y="0" x="0" class="er entityBox"/><text style="dominant-baseline: middle; text-anchor: middle; font-size: 12px;" transform="translate(50,37.5)" y="0" x="0" id="text-entity-Tag-79f01a75-328e-5fee-acfd-3ecc1e7e19fa" class="er entityLabel">Tag</text></g><rect height="14" width="26.240234375" y="138.00001525878906" x="266.40386962890625" class="er relationshipLabelBox"/><text style="text-anchor: middle; dominant-baseline: middle; font-size: 12px;" y="145.00001525878906" x="279.52398681640625" id="rel1" class="er relationshipLabel">user</text><rect height="14" width="26.240234375" y="292.6629943847656" x="158.24746704101562" class="er relationshipLabelBox"/><text style="text-anchor: middle; dominant-baseline: middle; font-size: 12px;" y="299.6629943847656" x="171.36758422851562" id="rel2" class="er relationshipLabel">user</text><rect height="14" width="54.0625" y="138" x="333.44476318359375" class="er relationshipLabelBox"/><text style="text-anchor: middle; dominant-baseline: middle; font-size: 12px;" y="145" x="360.47601318359375" id="rel3" class="er relationshipLabel">accounts</text><rect height="14" width="50.671875" y="281.3487548828125" x="109.07089233398438" class="er relationshipLabelBox"/><text style="text-anchor: middle; dominant-baseline: middle; font-size: 12px;" y="288.3487548828125" x="134.40682983398438" id="rel4" class="er relationshipLabel">sessions</text><rect height="14" width="25.9375" y="313" x="357.03125" class="er relationshipLabelBox"/><text style="text-anchor: middle; dominant-baseline: middle; font-size: 12px;" y="320" x="370" id="rel5" class="er relationshipLabel">tags</text><rect height="14" width="72.375" y="459.7055358886719" x="219.23220825195312" class="er relationshipLabelBox"/><text style="text-anchor: middle; dominant-baseline: middle; font-size: 12px;" y="466.7055358886719" x="255.41970825195312" id="rel6" class="er relationshipLabel">userToItems</text><rect height="14" width="33.375" y="988.6256103515625" x="528.3125" class="er relationshipLabelBox"/><text style="text-anchor: middle; dominant-baseline: middle; font-size: 12px;" y="995.6256103515625" x="545" id="rel7" class="er relationshipLabel">items</text><rect height="14" width="68.6875" y="1165.8687744140625" x="522.4266357421875" class="er relationshipLabelBox"/><text style="text-anchor: middle; dominant-baseline: middle; font-size: 12px;" y="1172.8687744140625" x="556.7703857421875" id="rel8" class="er relationshipLabel">fieldGroups</text><rect height="14" width="32.15625" y="836.5960083007812" x="314.8138122558594" class="er relationshipLabelBox"/><text style="text-anchor: middle; dominant-baseline: middle; font-size: 12px;" y="843.5960083007812" x="330.8919372558594" id="rel9" class="er relationshipLabel">fields</text><rect height="14" width="57.578125" y="1045.8450927734375" x="166.2109375" class="er relationshipLabelBox"/><text style="text-anchor: middle; dominant-baseline: middle; font-size: 12px;" y="1052.8450927734375" x="195" id="rel10" class="er relationshipLabel">collection</text><rect height="14" width="72.375" y="662.6571044921875" x="397.4119567871094" class="er relationshipLabelBox"/><text style="text-anchor: middle; dominant-baseline: middle; font-size: 12px;" y="669.6571044921875" x="433.5994567871094" id="rel11" class="er relationshipLabel">userToItems</text><rect height="14" width="66.125" y="645.4064331054688" x="570.2811279296875" class="er relationshipLabelBox"/><text style="text-anchor: middle; dominant-baseline: middle; font-size: 12px;" y="652.4064331054688" x="603.3436279296875" id="rel12" class="er relationshipLabel">userToItem</text><rect height="14" width="26.240234375" y="334.0900573730469" x="564.5609130859375" class="er relationshipLabelBox"/><text style="text-anchor: middle; dominant-baseline: middle; font-size: 12px;" y="341.0900573730469" x="577.6810302734375" id="rel13" class="er relationshipLabel">user</text><rect height="14" width="27.125" y="645.40673828125" x="357.30426025390625" class="er relationshipLabelBox"/><text style="text-anchor: middle; dominant-baseline: middle; font-size: 12px;" y="652.40673828125" x="370.86676025390625" id="rel14" class="er relationshipLabel">item</text><rect height="14" width="25.9375" y="469.1807556152344" x="598.2166137695312" class="er relationshipLabelBox"/><text style="text-anchor: middle; dominant-baseline: middle; font-size: 12px;" y="476.1807556152344" x="611.1853637695312" id="rel15" class="er relationshipLabel">tags</text><rect height="14" width="92.15625" y="663.3428955078125" x="491.622314453125" class="er relationshipLabelBox"/><text style="text-anchor: middle; dominant-baseline: middle; font-size: 12px;" y="670.3428955078125" x="537.700439453125" id="rel16" class="er relationshipLabel">itemComments</text><rect height="14" width="32.15625" y="1013" x="394.39788818359375" class="er relationshipLabelBox"/><text style="text-anchor: middle; dominant-baseline: middle; font-size: 12px;" y="1020" x="410.47601318359375" id="rel17" class="er relationshipLabel">fields</text><rect height="14" width="63.828125" y="1194.2164306640625" x="349.9595642089844" class="er relationshipLabelBox"/><text style="text-anchor: middle; dominant-baseline: middle; font-size: 12px;" y="1201.2164306640625" x="381.8736267089844" id="rel18" class="er relationshipLabel">collections</text><rect height="14" width="33.375" y="839.1320190429688" x="394.93060302734375" class="er relationshipLabelBox"/><text style="text-anchor: middle; dominant-baseline: middle; font-size: 12px;" y="846.1320190429688" x="411.61810302734375" id="rel19" class="er relationshipLabel">items</text><rect height="14" width="62.4375" y="1013" x="298.30523681640625" class="er relationshipLabelBox"/><text style="text-anchor: middle; dominant-baseline: middle; font-size: 12px;" y="1020" x="329.52398681640625" id="rel20" class="er relationshipLabel">fieldGroup</text><rect height="14" width="26.240234375" y="296.2141418457031" x="421.07489013671875" class="er relationshipLabelBox"/><text style="text-anchor: middle; dominant-baseline: middle; font-size: 12px;" y="303.2141418457031" x="434.19500732421875" id="rel21" class="er relationshipLabel">user</text><rect height="14" width="72.375" y="492.071533203125" x="391.8872375488281" class="er relationshipLabelBox"/><text style="text-anchor: middle; dominant-baseline: middle; font-size: 12px;" y="499.071533203125" x="428.0747375488281" id="rel22" class="er relationshipLabel">userToItems</text></svg>